<?xml version="1.0" encoding="UTF-8"?>
<svg xmlns="http://www.w3.org/2000/svg" version="1.1" viewBox="0 0 4.4 4.1">
  <!-- Generator: Adobe Illustrator 28.6.0, SVG Export Plug-In . SVG Version: 1.2.0 Build 709)  -->
  <g>
    <g id="Layer_2">
      <path d="M1.9,1.4s0,0,0,0,0,0,0,0c0,0,0,0-.1,0,0,0,0,.2,0,.3s.2,0,.3,0,0,0,0-.1,0-.1,0-.2-.1,0-.1,0c0,.1,0,.3.2.3s.3,0,.3,0,0-.3,0-.4,0-.1-.1-.2,0,0,0,0,0,0,0,0h0c0,.1,0,.1,0,.1,0,0,.1,0,0-.1s-.2,0-.2,0-.2,0-.3.1-.1,0-.2.2,0,.2,0,.3c0,.2,0,.4.2.5s.3.2.5.2.2,0,.3,0,0,0,0,0,0,0,0-.1c0,0-.2,0-.1,0,0,0,0,0,0,0,0,0,0,0,0,0,0,0,0,0,0,0,0,0,0,0-.1,0s0,0-.1,0,0,0-.1,0c-.2,0-.3-.1-.4-.3s-.1-.4,0-.5.1,0,.2-.1,0,0,.1,0,0,0,0,0h0c0-.1,0-.1,0-.1,0,0-.1,0,0,.1s0,0,.1,0,0,0,0,0c0,0,0,.2,0,.2s0,.1-.2,0-.1-.1-.1-.2h-.1s0,0,0,.1,0,0,0,0,0,0-.1,0,0,0,0,0,0,0,0,0,0,0,0,0,0,0,0,0c0,0,0-.1,0-.1h0Z"/>
    </g>
  </g>
</svg>